<?xml version="1.0" standalone="no"?>
<!DOCTYPE svg PUBLIC "-//W3C//DTD SVG 20010904//EN"
 "http://www.w3.org/TR/2001/REC-SVG-20010904/DTD/svg10.dtd">
<svg version="1.0" xmlns="http://www.w3.org/2000/svg"
 width="900.000000pt" height="546.000000pt" viewBox="0 0 900.000000 546.000000"
 preserveAspectRatio="xMidYMid meet">
<metadata>
Created by potrace 1.10, written by Peter Selinger 2001-2011
</metadata>
<g transform="translate(0.000000,546.000000) scale(0.100000,-0.100000)"
fill="#177bfb" stroke="none">
<path d="M1260 3411 c-106 -38 -174 -96 -220 -186 -19 -38 -20 -59 -20 -547 0
-462 2 -511 18 -545 9 -21 20 -42 25 -48 4 -5 16 -22 27 -36 29 -39 117 -94
175 -110 39 -10 220 -14 830 -17 853 -3 863 -3 982 55 56 28 106 87 117 140 4
18 12 35 17 38 5 4 9 184 9 436 l0 430 -87 -3 -88 -3 -5 -235 c-5 -219 -7
-238 -27 -270 -26 -42 -52 -59 -118 -76 -67 -18 -134 -17 -181 2 -57 24 -113
72 -120 102 -4 15 -11 32 -15 38 -5 6 -10 107 -11 225 l-3 214 -82 3 -83 3 0
-192 c0 -237 19 -322 93 -405 82 -93 313 -142 463 -98 79 23 86 14 79 -95 -8
-111 -9 -115 -54 -150 l-38 -31 -833 0 c-813 -1 -832 0 -864 19 -44 28 -81 71
-106 125 -20 45 -21 60 -19 485 0 357 3 444 15 466 8 15 14 32 14 39 0 17 45
63 92 94 l42 27 3330 0 3331 0 40 -25 c51 -31 70 -51 95 -97 19 -36 20 -56 20
-505 0 -454 -1 -468 -21 -507 -23 -44 -78 -97 -116 -112 -14 -5 -945 -9 -2328
-9 l-2305 0 0 -65 0 -65 2286 0 c2092 0 2291 1 2338 16 28 9 58 21 66 25 8 5
25 13 37 19 29 12 101 84 113 113 6 12 14 29 19 37 4 8 16 38 25 66 24 76 24
879 0 957 -24 78 -45 117 -88 164 -43 47 -71 64 -156 94 -53 19 -115 19 -3360
18 -3017 -2 -3309 -3 -3350 -18z"/>
<path d="M1890 3009 c-140 -11 -232 -66 -282 -167 -20 -42 -23 -61 -23 -177
l0 -130 34 -52 c38 -57 94 -97 174 -124 43 -15 91 -18 272 -20 l220 -1 3 50 3
50 -203 4 c-229 4 -249 9 -290 75 -20 34 -23 50 -23 143 1 122 16 163 79 214
l38 31 199 3 200 3 -3 52 -3 52 -160 0 c-88 0 -194 -3 -235 -6z"/>
<path d="M3330 2677 l0 -342 78 2 c42 1 83 3 90 3 10 0 13 45 12 208 0 114 -1
213 0 220 0 18 50 -16 50 -35 0 -8 9 -35 21 -61 11 -26 27 -63 35 -82 9 -19
19 -44 24 -55 5 -11 18 -42 30 -70 12 -27 29 -67 39 -88 l17 -39 87 -2 87 -2
21 46 c36 81 46 104 69 160 12 30 26 59 31 65 5 5 9 16 9 25 0 8 6 27 14 41 7
14 16 38 20 55 7 27 21 43 39 44 4 0 7 -96 7 -214 l0 -214 78 -4 c42 -3 80 -2
85 2 4 3 6 157 5 341 l-3 334 -125 1 c-128 2 -160 -5 -160 -32 0 -9 -6 -28
-13 -42 -8 -15 -21 -42 -30 -60 -9 -19 -17 -38 -17 -43 0 -9 -15 -46 -56 -136
-8 -17 -14 -38 -14 -46 0 -9 -4 -18 -9 -22 -5 -3 -12 -19 -16 -35 -4 -17 -11
-30 -17 -30 -17 0 -47 43 -54 78 -3 18 -10 35 -15 38 -5 3 -9 12 -9 20 0 13
-11 41 -50 129 -38 85 -50 115 -50 125 0 6 -7 22 -16 35 -16 25 -19 25 -155
25 l-139 0 0 -343z"/>
<path d="M4680 3010 c-87 -12 -167 -49 -211 -97 -41 -44 -57 -81 -74 -169 -14
-72 -14 -87 0 -152 18 -87 32 -117 77 -158 38 -35 72 -55 141 -79 40 -14 90
-17 275 -19 l227 -1 0 55 0 55 -196 0 c-166 1 -202 4 -235 19 -47 21 -73 54
-81 101 -11 65 -8 66 261 65 l241 -1 3 55 3 56 -253 2 -253 3 -3 23 c-5 31 32
86 76 113 35 22 49 24 240 27 l203 4 -3 51 -3 52 -190 1 c-104 1 -215 -2 -245
-6z"/>
<path d="M5500 3010 c-182 -24 -265 -102 -291 -269 -19 -125 3 -229 65 -300
27 -30 91 -71 111 -71 9 0 28 -6 44 -14 21 -11 83 -15 260 -18 l232 -3 -3 53
-3 54 -171 -1 c-219 -2 -246 2 -293 48 -48 46 -71 139 -53 208 7 24 12 53 12
64 0 39 48 104 93 127 41 20 59 22 231 22 l187 0 -3 53 -3 52 -180 1 c-99 0
-205 -2 -235 -6z"/>
<path d="M6027 3008 c-1 -5 -1 -158 1 -340 l3 -333 82 1 82 0 3 130 c3 170 -3
164 182 164 177 0 170 7 170 -163 l0 -125 83 -4 c45 -2 85 -2 90 0 4 2 7 156
7 343 l0 340 -82 -5 c-46 -3 -86 -5 -90 -5 -5 -1 -8 -56 -8 -124 0 -82 -4
-127 -12 -135 -14 -14 -304 -17 -325 -4 -8 5 -13 49 -15 137 l-3 129 -83 0
c-45 1 -83 -2 -85 -6z"/>
<path d="M7025 3013 c-56 -5 -141 -50 -168 -87 -18 -25 -22 -44 -22 -111 0
-69 3 -84 24 -111 51 -68 151 -93 384 -93 175 -1 178 -1 202 -26 40 -39 29
-92 -24 -120 -23 -11 -81 -15 -290 -16 -143 0 -261 -4 -262 -7 0 -4 -1 -29 -2
-55 l-2 -49 310 0 c286 0 313 2 356 20 60 26 91 57 112 112 21 57 21 80 0 140
-19 52 -58 86 -120 102 -21 5 -134 13 -251 16 l-214 7 -24 30 c-13 17 -24 35
-24 42 0 22 35 72 60 85 21 11 233 18 526 18 7 0 10 21 10 53 l-1 52 -270 1
c-149 1 -288 0 -310 -3z"/>
</g>
</svg>
